/* XPM */
static char *b39fae66b4504db7c7ac5a252d2ad93cyO82CLFkyNRptBnb[] = {
/* columns rows colors chars-per-pixel */
"64 64 20 1 ",
"  c #2E0001",
". c #340103",
"X c #6B1317",
"o c #73171A",
"O c #560E10",
"+ c #440507",
"@ c #390405",
"# c #0E3F36",
"$ c #493615",
"% c #1F917C",
"& c #23A089",
"* c #27B29A",
"= c #2BC7AC",
"- c #33EBCB",
"; c #57411A",
": c #9D7833",
"> c #896727",
", c #082520",
"< c #684E1E",
"1 c #281E0B",
/* pixels */
" .                                    .                         ",
"... .                           .   ......  ..                  ",
"XXXXXoXXooooXXO+  ooooooooooooXXoXoooXoooooXoXXO  ooooooXoXXOXXO",
"OO++@++OO++@@++O  oXOOOOO+OOOOOOO+@+OOOOOOOO+@@+  oXO+@@@+OOOOOO",
"OOO@+OOOOO@@++O+  oOOOO+@++OOOOO+@OOOOOOOOO+@+OO  XOOO+@+OOOOOOO",
"OO+OOO++OO+OOOO+  XOO+@@++OOO+OOOOO+OO++OOOOOOO+  XOO++OOO++++OO",
"OOOO+++OOOOOOO++ .oOOO+OOOOOOO++@+OO+++OOOO++++@  oOOOOO++OO+++O",
"O++OO@+++OOOOO+@..oOOOOOOOOOOOOO+@+++OOOO++++@+@  oO+O++++++++++",
"++++++@@++++@++@ .XO++OOO+OOO+++++++++O+++@@@+@@ .X@+OOO++@@++@+",
"++@++++@@@+++@+@. XOOO+++OOO++++++@++++O++++@@@@ .X+OOO+++++@@@@",
"@@+@@+++++@@@+@@  OO++################@@++@@+@@@..oOO$$$OO+++@@+",
"@@@@+++@@@++@@@@  X++#%&&***==-----=**####@@@@@@ .XO$;:>$+++++@@",
"@@@@@@@+@@@@@@@@  XOO+#,,,,&**==--=--=-==*####@@  X$;:><<1+@@@+@",
"@@@@@@@@@@@@@@@@  X+OO++@@@,,,,,%&&&***=*==***### $;:><$;1++@@@@",
"@@@@@@@@@@@@@@@@ .XO++@@@@@@@@@@,,,,%&&****==***&##:><$;$1@@@@@@",
"@@@@@@@@@@@@@@@@..O++@@@@@@@@@@@@@@@,,,,%&&&**&&%&*#<$;$1@@@@@@@",
"              ......  .     .           ,,%%&&&%&*--#;$1 . .    ",
"        .. ...........   ...            ..,,%&%&*=-=*#1 ...     ",
"  oooooooooooooXooXXXXoXXXXXXXXO  XoooooXXoo,%&*=-=*&,XooXoXXXXO",
"  oXOOOO+OOOOOOOOOOOO+OOOOO+++O+  oXO++OOOOO$,*=-=*&%&,OOO+OO++O",
" .oOO+@+OOOOO+OOOO+++OOO+++++OO+  o++O++@++$;:,--*&%&*,OOOO+++++",
"..oO+@+O++O++O++OOO+++++OO+++++@  oOO+@@+O$;:><,*&%&&*,OO+++O+++",
"..o++OO+OOOO++++++++@@+++++@@@++  X++++OO$;:><<;,%&&*=*,OOOO+@@+",
"..oOOOOOOO++@@++++++++@+++@@++++  XO+O++$;:><<;$1,%&*--,OO++@@++",
" .XOOO++O++@@+++++@@@+++@+++++@+ .X+OOO$;:><$;$1++,%&-=,@+++++++",
"  oOOOO+@@+++@+@@@@@++@++@@+@@@@  oOOO$;:><$;$1++@,%&=-,+++++++@",
". XO++++++@++++++@@@@@@@@@+++@@@ .oOO$;:><$;$1++++@,&*=*,@+++@@@",
" .XOOO++O+++++++@@@@@@@@@@@@@+@@ .X+$;:><$;$1+++@@@,%*-=,+@+@@@@",
"  X++OOO++++@@@@++@@@@@@@@@@@@@@ .X$;:><<;$1@@@+++@@,&--,@@@@@@@",
"  XO++OOO++++@@@@++@@@@@@@@@@@@@..$;:><<;$1++@@@@@+@,&=-,@@@@@@@",
". XOO++++@@@@@@@@@@@@@@@@@@@@@@@.$;:>;<;$1+@@@@@@@@@,&*=*,@@@@@@",
". O+++@@@@@@@@@@@@@@@@@@@@@@@@@@$;:>;<;$1@@@@@@@@@@@,%*-*,@@@@@@",
"..  .                 . .     .$;:>;<;$1           ..,*-=, ..   ",
"....  ..               ...  ..$;:>;<;$1   . ..  .....,*--,. ..  ",
"XXXXXXXX. ooooooooXoXXXO .ooo$;:>;<;$1XO .ooXXOOXXXXX,&=-,XXXXXX",
"OOO+@+OO. oX@@O+O+@++OOO. oX$;:>;<;$1++O  oXO++OO++OO,&--,XOOOOO",
"++OO+O+O..XO+@@+OO+@OO+O..o$;:><;;$1OO++  XO+@OO+OO+OO,=-,XOO+@+",
"+OOOOOO+..X+O+OO++O++OO+..$;:><;;$1O+++O  XOOO++++OO++,=-,XO+@++",
"OOOO++++ .XOOO++++++O+++.$;:><;;$1++++++ .X+++++++++++,*=,O++OO+",
"+O++++++. XOO+++++++++@+$;:><;;$1+++++++  XOO+@@+++@@@,**,OOOO++",
"OOO++++@  OO+OOO++@++++$;:><;;$1+++@@++@ .XO+O++@@@@@@,&*,OOO+++",
"O++@++@@  XOOO++@@@@+@$;:><$;$1+++++@@@@ .XOO++++@@@@@@,*,O++O++",
"++++@@@@  OO+++++++@@$;:><$;$1++@@+@++@@ .O+++@@@@@@@@@,*,XO++++",
"+++++@@@  O+O++@@+@@$;:><$;$1++++@@@@@@@..OO+++@@@@+@@@,&,XOO+++",
"+++@@@@@  XO++++@@+$;:><$;$1++++@+++@@@@. X++O+++++@@@@,&,X++++@",
"@@++@@@@  XOOO++++$;:><$;$1+++@@++@@@@@@  XOOOOO++@@@+@,%,XO+@@@",
"@@@@@@@@  XOO++@@$;:><$;$1+@@++@@@@@@@@@  XOO++++@@++@+@, O+++@@",
"@@@@@@@@ .O+++@@$;:><$;$1.++@@@@@@@@@@@@ .OO++@@@@@@++@@ .++@@@@",
"  ..   ....    $;:><$;$1.. .. . ...    ....         .. ....     ",
" . ...  ......$;:><$;$1....    ...  ........  ..      ..........",
"XXXoooooXXooo$;:><<;$1ooooooooooXXXXooooXXXoXXoX. XoooooXXXXXOXX",
"OO++@@@+O+++$;:><<;$1O++@++OOOOOOOOOO+@+OOOO+OOO  oXO+OOOOOOO++O",
"OOOO+@+OOOO$;:><$;$1O+@@+OOOOOOOOOOO+@+OOOOOO+@@  oO+@+@+O++OO++",
"OO++++OOO+$;:><$;$1OOO++OOOOO++O++OOOOOO++OOOO++ .o+@@@+O+++++OO",
"O+@+OOOO+$;:><$;$1oOOOO+@+OOOO@@+O+OO++++OO+OOO@. oOOO+++OOO++++",
"+@+OOOO+$;:><$;$1 oOO++@+OOO+@++O+OOOOO+OO+OO++@. oO+@+OOO++++@@",
"@@++++OO$;><;;$1 .XOOOO+OOOOOOOO++++++OO++O+++@@  o+@+OO+++++@@@",
"@@@@++++$;<<;$1+ .XOOOOO+++++OO++OO+++++++++++@@  oOOO+++++@+++@",
"+@@+@@+++1$$$1@+ .o+O+++++++@+++OO+++@+++@+++@@@ .X+OOO++@++@@@+",
"+++++@@+@@111+@@..XO++++@@@@++++++@@@@@+@++@@+@@ .X@++OO++@++@@@",
"@@++++@@+++@@@@@ .XOOOO+++@@@++@+++@@@@@@@++@@@@ .X++OO+@@@@@@@@",
"@+@@@@++++@+@@@@  XOOO+@++++@@@+@@@+@@@@++@@@@@@..XOOO+++@@@@@@@",
"@@@@@@@@@@@@@@@@ .OO++@@@@@@@@@@@@@@@@@@@@@@@@@@. XOO+OO+++@@@@@",
"@@@@@@@@@@@@@@@@  O+@@@@@@@@@@@@@@@@@@@@@@@@@@@@ .O++++OO+@@@@@@"
};
